<?xml version="1.0" encoding="UTF-8"?>
<svg id="Calque_1" xmlns="http://www.w3.org/2000/svg" version="1.1" viewBox="0 0 3000 3000">
  <!-- Generator: Adobe Illustrator 30.2.0, SVG Export Plug-In . SVG Version: 2.1.1 Build 105)  -->
  <defs>
    <style>
      .st0 {
        fill: #f45f0c;
      }
    </style>
  </defs>
  <path class="st0" d="M1747.48,2540.4h588.45v84.41h-588.45v-84.41ZM1747.48,2582.81h71.77v95.02c0,18.49,4.55,32.22,13.66,41.19,9.1,8.97,22.9,13.46,41.39,13.46h84c13.32,0,24.47-1.98,33.44-5.91,8.97-3.94,15.5-9.99,19.57-18.15,4.08-8.16,6.12-18.76,6.12-31.81v-93.79h66.06v88.9c0,19.57,4.34,33.09,13.05,40.57,8.7,7.47,22.7,11.21,42,11.21h73c18.76,0,32.22-3.94,40.37-11.83,8.16-7.89,12.23-20.8,12.23-38.74v-90.12h71.77v107.66c0,25.01-4.49,46.42-13.46,64.23-8.97,17.8-22.16,31.2-39.55,40.17-17.4,8.97-38.47,13.46-63.21,13.46h-68.51c-20.39,0-37.31-2.65-50.77-7.95-13.46-5.3-23.59-12.85-30.38-22.63-6.8-9.79-11.28-20.8-13.46-33.03h-2.45c-2.45,14.68-7.82,27.66-16.11,38.94-8.3,11.28-19.78,20.05-34.46,26.3-14.68,6.25-32.9,9.38-54.65,9.38h-77.48c-26.37,0-48.8-4.76-67.29-14.27-18.49-9.52-32.56-23.65-42.21-42.41-9.65-18.76-14.48-41.73-14.48-68.92v-110.92Z"/>
  <path class="st0" d="M2342.86,2360.24c0,29.36-6.39,55.4-19.17,78.09-12.78,22.7-31.13,40.24-55.05,52.6-23.92,12.38-52.06,18.56-84.42,18.56h-284.64c-32.62,0-60.83-6.25-84.62-18.76-23.78-12.5-42.13-30.04-55.05-52.6-12.91-22.56-19.37-48.53-19.37-77.89s6.52-54.37,19.57-76.66c13.05-22.29,31.4-39.89,55.05-52.81,23.65-12.91,51.79-19.37,84.42-19.37h284.64c32.08,0,60.02,6.46,83.8,19.37,23.79,12.92,42.21,30.52,55.26,52.81,13.05,22.29,19.57,47.85,19.57,76.66ZM2265.38,2360.24c0-12.5-3.06-23.58-9.17-33.23-6.12-9.65-14.95-16.92-26.51-21.82-11.55-4.89-25.21-7.34-40.98-7.34h-294.02c-15.76,0-29.49,2.45-41.19,7.34-11.69,4.89-20.52,12.17-26.51,21.82-5.98,9.65-8.97,20.73-8.97,33.23,0,13.32,3.06,24.74,9.17,34.25,6.12,9.52,14.96,16.72,26.51,21.61,11.56,4.89,25.22,7.34,40.98,7.34h294.02c15.77,0,29.36-2.45,40.78-7.34,11.42-4.89,20.25-12.16,26.51-21.82,6.26-9.65,9.38-21,9.38-34.05Z"/>
  <path class="st0" d="M2342.45,2040.2c0,28.54-5.5,53.29-16.52,74.22-11.01,20.94-27.18,37.11-48.53,48.53-21.34,11.42-46.69,17.54-76.05,18.35l-37.92.41v-83.19h43.63c12.78-.82,23.65-3.73,32.62-8.77,8.97-5.03,15.84-11.83,20.59-20.39,4.76-8.56,7.14-18.42,7.14-29.57s-2.24-20.86-6.73-29.16c-4.49-8.29-10.87-14.41-19.17-18.35-8.29-3.94-18.55-5.91-30.79-5.91h-22.84c-22.56,0-41.45,4.63-56.68,13.86-15.22,9.25-32.35,26.65-51.38,52.2l-23.65,33.44c-20.66,29.63-43.23,52.06-67.69,67.29-24.47,15.23-54.91,22.84-91.34,22.84h-19.98c-27.46-.54-51.38-6.39-71.77-17.54-20.39-11.15-36.22-26.91-47.51-47.31-11.28-20.39-16.92-44.31-16.92-71.77s5.51-51.79,16.52-71.36c11.01-19.57,26.91-34.59,47.71-45.06,20.8-10.46,45.88-16.11,75.24-16.92l39.96-.41v81.97l-43.63.82c-13.05.55-24.06,2.93-33.03,7.14-8.97,4.22-15.83,9.99-20.59,17.33-4.75,7.34-7.14,16.31-7.14,26.91s2.11,19.31,6.32,26.91c4.22,7.61,10.27,13.39,18.15,17.33,7.89,3.94,17.4,5.91,28.54,5.91h21.61c20.39,0,38.33-4.89,53.83-14.68,15.5-9.79,31.81-25.69,48.94-47.71l24.06-33.85c15.5-22.02,31.13-40.03,46.9-54.03,15.77-14,32.9-24.06,51.38-30.18,18.49-6.12,39.96-9.17,64.43-9.17h22.02c28.82,0,53.77,5.71,74.83,17.13,21.07,11.42,37.25,27.6,48.53,48.53,11.28,20.94,16.92,45.67,16.92,74.22Z"/>
  <path class="st0" d="M2342.45,1740.15c0,28.54-5.5,53.29-16.52,74.22-11.01,20.94-27.18,37.11-48.53,48.53-21.34,11.42-46.69,17.54-76.05,18.35l-37.92.41v-83.19h43.63c12.78-.82,23.65-3.73,32.62-8.77,8.97-5.03,15.84-11.83,20.59-20.39,4.76-8.56,7.14-18.42,7.14-29.57s-2.24-20.86-6.73-29.16c-4.49-8.29-10.87-14.41-19.17-18.35-8.29-3.94-18.55-5.91-30.79-5.91h-22.84c-22.56,0-41.45,4.63-56.68,13.86-15.22,9.25-32.35,26.65-51.38,52.2l-23.65,33.44c-20.66,29.63-43.23,52.06-67.69,67.29-24.47,15.23-54.91,22.84-91.34,22.84h-19.98c-27.46-.54-51.38-6.39-71.77-17.54-20.39-11.15-36.22-26.91-47.51-47.31-11.28-20.39-16.92-44.31-16.92-71.77s5.51-51.79,16.52-71.36c11.01-19.57,26.91-34.59,47.71-45.06,20.8-10.46,45.88-16.11,75.24-16.92l39.96-.41v81.97l-43.63.82c-13.05.55-24.06,2.93-33.03,7.14-8.97,4.22-15.83,9.99-20.59,17.33-4.75,7.34-7.14,16.31-7.14,26.91s2.11,19.31,6.32,26.91c4.22,7.61,10.27,13.39,18.15,17.33,7.89,3.94,17.4,5.91,28.54,5.91h21.61c20.39,0,38.33-4.89,53.83-14.68,15.5-9.79,31.81-25.69,48.94-47.71l24.06-33.85c15.5-22.02,31.13-40.03,46.9-54.03,15.77-14,32.9-24.06,51.38-30.18,18.49-6.12,39.96-9.17,64.43-9.17h22.02c28.82,0,53.77,5.71,74.83,17.13,21.07,11.42,37.25,27.6,48.53,48.53,11.28,20.94,16.92,45.67,16.92,74.22Z"/>
  <path class="st0" d="M2335.93,1567.32h-588.45v-84.41h588.45v84.41ZM2335.93,1524.91h-71.77v-95.02c0-18.49-4.55-32.22-13.66-41.19-9.1-8.97-22.9-13.46-41.39-13.46h-84c-13.32,0-24.47,1.98-33.44,5.91-8.97,3.94-15.5,9.99-19.57,18.15-4.08,8.16-6.12,18.76-6.12,31.81v93.79h-66.06v-88.9c0-19.57-4.34-33.09-13.05-40.57-8.7-7.47-22.7-11.21-42-11.21h-73c-18.76,0-32.22,3.94-40.37,11.83-8.16,7.89-12.23,20.8-12.23,38.74v90.12h-71.77v-107.66c0-25.01,4.49-46.42,13.46-64.23,8.97-17.8,22.16-31.2,39.55-40.17,17.4-8.97,38.47-13.46,63.21-13.46h68.51c20.39,0,37.31,2.65,50.77,7.95,13.46,5.3,23.59,12.85,30.38,22.63,6.8,9.79,11.28,20.8,13.46,33.03h2.45c2.45-14.68,7.82-27.66,16.11-38.94,8.3-11.28,19.78-20.05,34.46-26.3,14.68-6.25,32.9-9.38,54.65-9.38h77.48c26.37,0,48.8,4.76,67.29,14.27,18.49,9.52,32.56,23.65,42.21,42.41,9.65,18.76,14.48,41.73,14.48,68.92v110.92Z"/>
  <path class="st0" d="M2342.86,1108.23c0,29.36-6.39,55.4-19.17,78.09-12.78,22.7-31.13,40.24-55.05,52.61-23.92,12.38-52.06,18.56-84.42,18.56h-284.64c-32.62,0-60.83-6.25-84.62-18.76-23.78-12.5-42.13-30.04-55.05-52.6-12.91-22.56-19.37-48.53-19.37-77.89s6.52-54.37,19.57-76.66c13.05-22.29,31.4-39.89,55.05-52.81,23.65-12.91,51.79-19.37,84.42-19.37h284.64c32.08,0,60.02,6.46,83.8,19.37,23.79,12.92,42.21,30.52,55.26,52.81,13.05,22.29,19.57,47.85,19.57,76.66ZM2265.38,1108.23c0-12.5-3.06-23.58-9.17-33.24-6.12-9.65-14.95-16.92-26.51-21.82-11.55-4.89-25.21-7.34-40.98-7.34h-294.02c-15.76,0-29.49,2.44-41.19,7.34-11.69,4.89-20.52,12.17-26.51,21.82-5.98,9.66-8.97,20.73-8.97,33.24,0,13.32,3.06,24.74,9.17,34.25,6.12,9.52,14.96,16.72,26.51,21.61,11.56,4.89,25.22,7.34,40.98,7.34h294.02c15.77,0,29.36-2.45,40.78-7.34,11.42-4.89,20.25-12.16,26.51-21.82,6.26-9.65,9.38-21,9.38-34.05Z"/>
  <path class="st0" d="M2342.86,770.25c0,29.36-6.39,55.4-19.17,78.1-12.78,22.7-31.13,40.24-55.05,52.6-23.92,12.37-52.06,18.56-84.42,18.56h-284.64c-32.62,0-60.83-6.25-84.62-18.76-23.78-12.5-42.13-30.04-55.05-52.6-12.91-22.56-19.37-48.53-19.37-77.89s6.52-54.37,19.57-76.66c13.05-22.29,31.4-39.89,55.05-52.81,23.65-12.91,51.79-19.37,84.42-19.37h284.64c32.08,0,60.02,6.46,83.8,19.37,23.79,12.92,42.21,30.52,55.26,52.81,13.05,22.3,19.57,47.85,19.57,76.66ZM2265.38,770.25c0-12.5-3.06-23.58-9.17-33.23-6.12-9.65-14.95-16.92-26.51-21.82-11.55-4.89-25.21-7.34-40.98-7.34h-294.02c-15.76,0-29.49,2.45-41.19,7.34-11.69,4.89-20.52,12.17-26.51,21.82-5.98,9.65-8.97,20.73-8.97,33.23,0,13.32,3.06,24.74,9.17,34.25,6.12,9.52,14.96,16.72,26.51,21.62,11.56,4.89,25.22,7.34,40.98,7.34h294.02c15.77,0,29.36-2.44,40.78-7.34,11.42-4.89,20.25-12.17,26.51-21.82,6.26-9.65,9.38-21,9.38-34.05Z"/>
  <path class="st0" d="M2335.93,579.89h-588.45v-85.23h588.45v85.23ZM2177.7,502.41l-159.45,3.26v-13.46l-270.78-115.4v-89.31l276.89,125.19,6.53,28.14,146.8,61.58ZM2335.93,370.69l-279.75,98.69-70.14-57.09,349.89-132.12v90.53Z"/>
  <path class="st0" d="M1686.54,241.26v2581.83h-370.36V241.26h370.36ZM1500.47,241.26v314.9h-416.89c-81.11,0-141.35,19.97-180.71,59.95-39.37,39.95-59.05,100.48-59.05,181.61v368.57c0,58.43,8.67,107.35,25.95,146.71,17.3,39.37,43.84,67.99,79.61,85.88,35.79,17.9,82.31,26.84,139.56,26.84h411.52v289.85h-390.05c-85.88,0-145.2,19.06-178.02,57.25-32.79,38.17-49.2,99.58-49.2,184.29v320.27c0,82.3,17.3,141.35,51.89,177.13,34.61,35.79,91.24,53.68,169.97,53.68h395.42v314.91h-472.35c-109.73,0-203.66-19.68-281.81-59.05-78.1-39.36-136.87-97.23-176.23-173.55-39.36-76.35-59.04-168.8-59.04-277.33v-300.59c0-89.46,11.62-163.72,34.88-222.76,23.26-59.05,56.36-103.49,99.3-133.3,42.94-29.83,91.24-49.51,144.92-59.04v-10.74c-64.41-10.74-121.35-34.31-170.87-70.68-49.48-36.4-87.95-86.77-115.4-151.18-27.42-64.41-41.15-144.35-41.15-239.76v-339.95c0-115.71,20.88-214.12,62.62-295.22,41.77-81.13,103.77-142.87,186.08-185.19,82.3-42.36,183.11-63.52,302.37-63.52h486.67Z"/>
</svg>