<?xml version="1.0" encoding="UTF-8"?>
<svg id="Calque_1" xmlns="http://www.w3.org/2000/svg" version="1.1" viewBox="0 0 3025.77 731.86">
  <!-- Generator: Adobe Illustrator 30.2.0, SVG Export Plug-In . SVG Version: 2.1.1 Build 105)  -->
  <defs>
    <style>
      .st0 {
        fill: #fff;
      }

      .st1 {
        fill: #011223;
      }
    </style>
  </defs>
  <path class="st1" d="M765.39,641.08V146.54h70.94v494.54h-70.94ZM801.03,641.08v-60.32h79.86c15.54,0,27.08-3.83,34.62-11.48s11.31-19.25,11.31-34.78v-70.6c0-11.19-1.66-20.56-4.97-28.1-3.32-7.54-8.4-13.02-15.25-16.45-6.86-3.43-15.77-5.14-26.73-5.14h-78.82v-55.52h74.71c16.45,0,27.81-3.65,34.1-10.97,6.28-7.31,9.42-19.07,9.42-35.3v-61.35c0-15.76-3.32-27.08-9.94-33.93-6.63-6.86-17.48-10.29-32.55-10.29h-75.74v-60.32h90.48c21.02,0,39.02,3.77,53.98,11.31,14.96,7.54,26.22,18.63,33.75,33.25,7.54,14.63,11.31,32.33,11.31,53.13v57.58c0,17.13-2.22,31.36-6.68,42.67-4.45,11.31-10.79,19.82-19.02,25.53-8.22,5.71-17.48,9.48-27.76,11.31v2.06c12.34,2.06,23.25,6.57,32.73,13.54s16.85,16.62,22.1,28.96,7.88,27.65,7.88,45.93v65.12c0,22.17-4,41.01-11.99,56.55-8,15.54-19.88,27.36-35.64,35.48-15.76,8.11-35.07,12.17-57.92,12.17h-93.23v-.04h0Z"/>
  <path class="st1" d="M1151.23,646.89c-24.67,0-46.55-5.37-65.63-16.11s-33.82-26.16-44.21-46.27c-10.4-20.1-15.59-43.75-15.59-70.94v-239.22c0-27.42,5.25-51.12,15.77-71.12,10.51-19.99,25.25-35.41,44.21-46.27,18.96-10.85,40.78-16.28,65.46-16.28s45.7,5.48,64.43,16.45c18.74,10.97,33.53,26.39,44.39,46.27,10.85,19.88,16.28,43.52,16.28,70.94v239.22c0,26.96-5.43,50.44-16.28,70.43-10.86,20-25.65,35.48-44.39,46.44-18.74,10.97-40.21,16.45-64.43,16.45h-.01ZM1151.23,581.78c10.51,0,19.82-2.57,27.93-7.71,8.11-5.14,14.22-12.56,18.33-22.28,4.11-9.71,6.17-21.19,6.17-34.44v-247.11c0-13.25-2.06-24.79-6.17-34.62s-10.23-17.25-18.33-22.28c-8.11-5.02-17.43-7.54-27.93-7.54-11.2,0-20.79,2.57-28.79,7.71s-14.06,12.57-18.17,22.28c-4.11,9.71-6.17,21.2-6.17,34.44v247.11c0,13.25,2.06,24.67,6.17,34.27s10.22,17.02,18.33,22.28c8.1,5.26,17.65,7.88,28.62,7.88h.01Z"/>
  <path class="st1" d="M1420.19,646.54c-23.99,0-44.78-4.63-62.37-13.88s-31.19-22.84-40.78-40.78c-9.6-17.94-14.74-39.25-15.42-63.92l-.34-31.87h69.91v36.67c.68,10.74,3.13,19.88,7.37,27.42,4.22,7.54,9.94,13.31,17.13,17.31s15.48,6,24.85,6,17.53-1.88,24.51-5.65c6.97-3.77,12.11-9.13,15.42-16.11,3.31-6.97,4.97-15.59,4.97-25.87v-19.19c0-18.96-3.89-34.84-11.65-47.64-7.77-12.79-22.4-27.19-43.87-43.18l-28.1-19.88c-24.9-17.36-43.75-36.32-56.55-56.89-12.8-20.56-19.19-46.15-19.19-76.77v-16.79c.45-23.08,5.36-43.18,14.74-60.32,9.36-17.13,22.62-30.44,39.75-39.93,17.13-9.48,37.24-14.22,60.32-14.22s43.52,4.63,59.97,13.88,29.07,22.62,37.87,40.09c8.79,17.48,13.54,38.55,14.22,63.24l.34,33.59h-68.89l-.68-36.67c-.46-10.97-2.46-20.22-6-27.76-3.55-7.54-8.4-13.31-14.56-17.31-6.17-3.99-13.71-6-22.62-6s-16.23,1.77-22.62,5.31c-6.4,3.55-11.25,8.63-14.56,15.25-3.32,6.63-4.97,14.63-4.97,23.99v18.17c0,17.13,4.11,32.21,12.34,45.24,8.22,13.02,21.59,26.73,40.09,41.13l28.44,20.22c18.51,13.02,33.64,26.17,45.41,39.41,11.76,13.25,20.22,27.65,25.36,43.18,5.14,15.54,7.71,33.59,7.71,54.15v18.51c0,24.22-4.8,45.19-14.4,62.89-9.59,17.71-23.19,31.31-40.78,40.78-17.59,9.48-38.39,14.22-62.38,14.22h0v-.02h.01Z"/>
  <path class="st1" d="M1672.37,646.54c-23.99,0-44.78-4.63-62.37-13.88s-31.19-22.84-40.78-40.78c-9.59-17.94-14.74-39.25-15.42-63.92l-.34-31.87h69.91v36.67c.68,10.74,3.13,19.88,7.37,27.42,4.22,7.54,9.94,13.31,17.13,17.31s15.48,6,24.85,6,17.53-1.88,24.51-5.65c6.97-3.77,12.11-9.13,15.42-16.11,3.31-6.97,4.97-15.59,4.97-25.87v-19.19c0-18.96-3.89-34.84-11.65-47.64-7.77-12.79-22.4-27.19-43.87-43.18l-28.1-19.88c-24.9-17.36-43.75-36.32-56.55-56.89-12.8-20.56-19.19-46.15-19.19-76.77v-16.79c.45-23.08,5.36-43.18,14.74-60.32,9.36-17.13,22.62-30.44,39.75-39.93,17.13-9.48,37.24-14.22,60.32-14.22s43.52,4.63,59.97,13.88,29.07,22.62,37.87,40.09c8.79,17.48,13.54,38.55,14.22,63.24l.34,33.59h-68.89l-.68-36.67c-.46-10.97-2.46-20.22-6-27.76-3.55-7.54-8.4-13.31-14.56-17.31-6.17-3.99-13.71-6-22.62-6s-16.23,1.77-22.62,5.31c-6.4,3.55-11.25,8.63-14.56,15.25-3.32,6.63-4.97,14.63-4.97,23.99v18.17c0,17.13,4.11,32.21,12.34,45.24,8.22,13.02,21.59,26.73,40.09,41.13l28.44,20.22c18.51,13.02,33.64,26.17,45.41,39.41,11.76,13.25,20.22,27.65,25.36,43.18,5.14,15.54,7.71,33.59,7.71,54.15v18.51c0,24.22-4.8,45.19-14.4,62.89-9.59,17.71-23.19,31.31-40.78,40.78-17.59,9.48-38.39,14.22-62.38,14.22h0v-.02h.01Z"/>
  <path class="st1" d="M2052.04,146.5v494.54h-70.94V146.5h70.94ZM2016.4,146.5v60.32h-79.86c-15.54,0-27.08,3.83-34.62,11.48s-11.31,19.25-11.31,34.78v70.6c0,11.19,1.66,20.56,4.97,28.1,3.32,7.54,8.4,13.02,15.25,16.45s15.77,5.14,26.73,5.14h78.82v55.52h-74.71c-16.45,0-27.81,3.65-34.1,10.97-6.28,7.31-9.42,19.07-9.42,35.3v61.35c0,15.76,3.32,27.08,9.94,33.93,6.63,6.86,17.48,10.29,32.55,10.29h75.74v60.32h-90.48c-21.02,0-39.02-3.77-53.98-11.31s-26.22-18.63-33.75-33.25c-7.54-14.63-11.31-32.33-11.31-53.13v-57.58c0-17.13,2.22-31.36,6.68-42.67,4.45-11.31,10.79-19.82,19.02-25.53,8.22-5.71,17.48-9.48,27.76-11.31v-2.06c-12.34-2.06-23.25-6.57-32.73-13.54s-16.85-16.62-22.1-28.96-7.88-27.65-7.88-45.93v-65.12c0-22.17,4-41.01,11.99-56.55,8-15.54,19.88-27.36,35.64-35.48s35.07-12.17,57.92-12.17h93.23v.04h.01Z"/>
  <path class="st1" d="M2203.45,646.89c-24.67,0-46.55-5.37-65.63-16.11-19.08-10.74-33.82-26.16-44.21-46.27-10.4-20.1-15.59-43.75-15.59-70.94v-239.22c0-27.42,5.25-51.12,15.77-71.12,10.51-19.99,25.25-35.41,44.21-46.27,18.96-10.85,40.78-16.28,65.46-16.28s45.7,5.48,64.43,16.45c18.74,10.97,33.53,26.39,44.39,46.27,10.85,19.88,16.28,43.52,16.28,70.94v239.22c0,26.96-5.43,50.44-16.28,70.43-10.86,20-25.65,35.48-44.39,46.44-18.74,10.97-40.21,16.45-64.43,16.45h-.01ZM2203.45,581.78c10.51,0,19.82-2.57,27.94-7.71,8.1-5.14,14.22-12.56,18.33-22.28,4.11-9.71,6.17-21.19,6.17-34.44v-247.11c0-13.25-2.06-24.79-6.17-34.62-4.11-9.83-10.23-17.25-18.33-22.28-8.12-5.02-17.43-7.54-27.94-7.54-11.2,0-20.79,2.57-28.79,7.71s-14.05,12.57-18.16,22.28c-4.11,9.71-6.17,21.2-6.17,34.44v247.11c0,13.25,2.06,24.67,6.17,34.27,4.11,9.59,10.22,17.02,18.33,22.28,8.1,5.26,17.65,7.88,28.62,7.88h0Z"/>
  <path class="st1" d="M2487.5,646.89c-24.67,0-46.55-5.37-65.63-16.11-19.08-10.74-33.82-26.16-44.21-46.27-10.4-20.1-15.59-43.75-15.59-70.94v-239.22c0-27.42,5.25-51.12,15.77-71.12,10.51-19.99,25.25-35.41,44.21-46.27,18.96-10.85,40.78-16.28,65.46-16.28s45.69,5.48,64.43,16.45,33.53,26.39,44.39,46.27c10.85,19.88,16.28,43.52,16.28,70.94v239.22c0,26.96-5.43,50.44-16.28,70.43-10.86,20-25.65,35.48-44.39,46.44-18.74,10.97-40.21,16.45-64.43,16.45h-.01ZM2487.5,581.78c10.51,0,19.82-2.57,27.93-7.71s14.22-12.56,18.33-22.28c4.11-9.71,6.17-21.19,6.17-34.44v-247.11c0-13.25-2.06-24.79-6.17-34.62-4.11-9.83-10.22-17.25-18.33-22.28-8.11-5.02-17.43-7.54-27.93-7.54-11.2,0-20.79,2.57-28.79,7.71s-14.06,12.57-18.17,22.28c-4.11,9.71-6.17,21.2-6.17,34.44v247.11c0,13.25,2.06,24.67,6.17,34.27,4.11,9.59,10.22,17.02,18.33,22.28,8.1,5.26,17.65,7.88,28.62,7.88h0Z"/>
  <path class="st1" d="M2647.48,641.06V146.52h71.63v494.54h-71.63ZM2712.6,508.09l-2.74-134h11.31l96.99-227.57h75.05l-105.21,232.71-23.65,5.48-51.75,123.38h0ZM2823.3,641.06l-82.94-235.11,47.98-58.95,111.04,294.06h-76.09.01Z"/>
  <rect class="st1" x="164.01" y="140.69" width="505.85" height="505.85" rx="79.6" ry="79.6"/>
  <path class="st0" d="M561.29,613.12h-100.35v-14.39h100.35v14.39ZM561.29,605.89h-12.24v-16.2c0-3.15-.78-5.49-2.33-7.02s-3.91-2.3-7.06-2.3h-14.32c-2.27,0-4.17.34-5.7,1.01s-2.64,1.7-3.34,3.1c-.7,1.39-1.04,3.2-1.04,5.42v15.99h-11.27v-15.16c0-3.34-.74-5.64-2.23-6.92-1.48-1.27-3.87-1.91-7.16-1.91h-12.45c-3.2,0-5.49.67-6.88,2.02s-2.09,3.55-2.09,6.61v15.37h-12.24v-18.36c0-4.27.77-7.92,2.3-10.95,1.53-3.04,3.78-5.32,6.74-6.85,2.97-1.53,6.56-2.3,10.78-2.3h11.68c3.48,0,6.36.45,8.66,1.36s4.02,2.19,5.18,3.86,1.92,3.55,2.3,5.63h.42c.42-2.5,1.33-4.72,2.75-6.64s3.37-3.42,5.88-4.49c2.5-1.07,5.61-1.6,9.32-1.6h13.21c4.5,0,8.32.81,11.48,2.43,3.15,1.62,5.55,4.03,7.2,7.23s2.47,7.12,2.47,11.75v18.92h-.02,0Z"/>
  <path class="st0" d="M562.48,534.83c0,5.01-1.09,9.45-3.27,13.32s-5.31,6.86-9.39,8.97-8.88,3.17-14.4,3.17h-48.54c-5.56,0-10.37-1.07-14.43-3.2s-7.18-5.12-9.39-8.97c-2.2-3.85-3.3-8.28-3.3-13.28s1.11-9.27,3.34-13.07,5.35-6.8,9.39-9.01c4.03-2.2,8.83-3.3,14.4-3.3h48.54c5.47,0,10.24,1.1,14.29,3.3,4.06,2.2,7.2,5.2,9.42,9.01s3.34,8.16,3.34,13.07h0ZM549.27,534.83c0-2.13-.52-4.02-1.56-5.67s-2.55-2.89-4.52-3.72c-1.97-.83-4.3-1.25-6.99-1.25h-50.14c-2.69,0-5.03.42-7.02,1.25s-3.5,2.08-4.52,3.72c-1.02,1.65-1.53,3.54-1.53,5.67,0,2.27.52,4.22,1.56,5.84s2.55,2.85,4.52,3.69c1.97.83,4.3,1.25,6.99,1.25h50.14c2.69,0,5.01-.42,6.95-1.25,1.95-.83,3.45-2.07,4.52-3.72s1.6-3.58,1.6-5.81h0Z"/>
  <path class="st0" d="M562.41,480.25c0,4.87-.94,9.09-2.82,12.66s-4.64,6.33-8.28,8.28-7.96,2.99-12.97,3.13l-6.47.07v-14.19h7.44c2.18-.14,4.03-.64,5.56-1.5,1.53-.86,2.7-2.02,3.51-3.48s1.22-3.14,1.22-5.04-.38-3.56-1.15-4.97-1.85-2.46-3.27-3.13c-1.41-.67-3.16-1.01-5.25-1.01h-3.9c-3.85,0-7.07.79-9.67,2.36-2.6,1.58-5.52,4.54-8.76,8.9l-4.03,5.7c-3.52,5.05-7.37,8.88-11.54,11.48s-9.36,3.9-15.58,3.9h-3.41c-4.68-.09-8.76-1.09-12.24-2.99-3.48-1.9-6.18-4.59-8.1-8.07s-2.89-7.56-2.89-12.24.94-8.83,2.82-12.17,4.59-5.9,8.14-7.68c3.55-1.78,7.82-2.75,12.83-2.89l6.81-.07v13.98l-7.44.14c-2.23.09-4.1.5-5.63,1.22s-2.7,1.7-3.51,2.96c-.81,1.25-1.22,2.78-1.22,4.59s.36,3.29,1.08,4.59,1.75,2.28,3.1,2.96c1.35.67,2.97,1.01,4.87,1.01h3.69c3.48,0,6.54-.83,9.18-2.5s5.42-4.38,8.35-8.14l4.1-5.77c2.64-3.76,5.31-6.83,8-9.21s5.61-4.1,8.76-5.15c3.15-1.04,6.81-1.56,10.99-1.56h3.76c4.91,0,9.17.97,12.76,2.92s6.35,4.71,8.28,8.28c1.92,3.57,2.89,7.79,2.89,12.66h0v-.03h0Z"/>
  <path class="st0" d="M562.41,429.09c0,4.87-.94,9.09-2.82,12.66s-4.64,6.33-8.28,8.28-7.96,2.99-12.97,3.13l-6.47.07v-14.19h7.44c2.18-.14,4.03-.64,5.56-1.5,1.53-.86,2.7-2.02,3.51-3.48s1.22-3.14,1.22-5.04-.38-3.56-1.15-4.97-1.85-2.46-3.27-3.13c-1.41-.67-3.16-1.01-5.25-1.01h-3.9c-3.85,0-7.07.79-9.67,2.36-2.6,1.58-5.52,4.54-8.76,8.9l-4.03,5.7c-3.52,5.05-7.37,8.88-11.54,11.48s-9.36,3.89-15.58,3.89h-3.41c-4.68-.09-8.76-1.09-12.24-2.99-3.48-1.9-6.18-4.59-8.1-8.07s-2.89-7.56-2.89-12.24.94-8.83,2.82-12.17,4.59-5.9,8.14-7.68c3.55-1.78,7.82-2.75,12.83-2.89l6.81-.07v13.98l-7.44.14c-2.23.09-4.1.5-5.63,1.22s-2.7,1.7-3.51,2.96c-.81,1.25-1.22,2.78-1.22,4.59s.36,3.29,1.08,4.59,1.75,2.28,3.1,2.96c1.35.67,2.97,1.01,4.87,1.01h3.69c3.48,0,6.54-.83,9.18-2.5s5.42-4.38,8.35-8.14l4.1-5.77c2.64-3.76,5.31-6.83,8-9.21s5.61-4.1,8.76-5.15c3.15-1.04,6.81-1.56,10.99-1.56h3.76c4.91,0,9.17.97,12.76,2.92s6.35,4.71,8.28,8.28c1.92,3.57,2.89,7.79,2.89,12.66h0v-.02h0Z"/>
  <path class="st0" d="M460.95,352.04h100.35v14.39h-100.35v-14.39h0ZM460.95,359.28h12.24v16.2c0,3.15.78,5.49,2.33,7.02s3.91,2.3,7.06,2.3h14.32c2.27,0,4.17-.34,5.7-1.01s2.64-1.7,3.34-3.1c.7-1.39,1.04-3.2,1.04-5.42v-15.99h11.27v15.16c0,3.34.74,5.64,2.23,6.92,1.48,1.27,3.87,1.91,7.16,1.91h12.45c3.2,0,5.49-.67,6.88-2.02s2.09-3.55,2.09-6.61v-15.37h12.24v18.36c0,4.27-.77,7.92-2.3,10.95-1.53,3.04-3.78,5.32-6.74,6.85-2.97,1.53-6.56,2.3-10.78,2.3h-11.68c-3.48,0-6.36-.45-8.66-1.36-2.3-.9-4.02-2.19-5.18-3.86s-1.92-3.55-2.3-5.63h-.42c-.42,2.5-1.33,4.72-2.75,6.64s-3.37,3.42-5.88,4.49c-2.5,1.07-5.61,1.6-9.32,1.6h-13.21c-4.5,0-8.32-.81-11.48-2.43-3.15-1.62-5.55-4.03-7.2-7.23s-2.47-7.12-2.47-11.75v-18.92h.02Z"/>
  <path class="st0" d="M562.48,321.32c0,5.01-1.09,9.45-3.27,13.32s-5.31,6.86-9.39,8.97-8.88,3.17-14.4,3.17h-48.54c-5.56,0-10.37-1.07-14.43-3.2s-7.18-5.12-9.39-8.97c-2.2-3.85-3.3-8.28-3.3-13.28s1.11-9.27,3.34-13.07c2.23-3.8,5.35-6.8,9.39-9.01,4.03-2.2,8.83-3.3,14.4-3.3h48.54c5.47,0,10.24,1.1,14.29,3.3,4.06,2.2,7.2,5.2,9.42,9.01,2.23,3.8,3.34,8.16,3.34,13.07h0ZM549.27,321.32c0-2.13-.52-4.02-1.56-5.67s-2.55-2.89-4.52-3.72c-1.97-.83-4.3-1.25-6.99-1.25h-50.14c-2.69,0-5.03.42-7.02,1.25s-3.5,2.08-4.52,3.72c-1.02,1.65-1.53,3.54-1.53,5.67,0,2.27.52,4.22,1.56,5.84s2.55,2.85,4.52,3.69c1.97.83,4.3,1.25,6.99,1.25h50.14c2.69,0,5.01-.42,6.95-1.25s3.45-2.07,4.52-3.72,1.6-3.58,1.6-5.81h0Z"/>
  <path class="st0" d="M562.48,263.68c0,5.01-1.09,9.45-3.27,13.32s-5.31,6.86-9.39,8.97-8.88,3.17-14.4,3.17h-48.54c-5.56,0-10.37-1.07-14.43-3.2s-7.18-5.12-9.39-8.97c-2.2-3.85-3.3-8.28-3.3-13.28s1.11-9.27,3.34-13.07,5.35-6.8,9.39-9.01c4.03-2.2,8.83-3.3,14.4-3.3h48.54c5.47,0,10.24,1.1,14.29,3.3,4.06,2.2,7.2,5.2,9.42,9.01,2.23,3.8,3.34,8.16,3.34,13.07h0ZM549.27,263.68c0-2.13-.52-4.02-1.56-5.67s-2.55-2.89-4.52-3.72c-1.97-.83-4.3-1.25-6.99-1.25h-50.14c-2.69,0-5.03.42-7.02,1.25s-3.5,2.08-4.52,3.72c-1.02,1.65-1.53,3.54-1.53,5.67,0,2.27.52,4.22,1.56,5.84s2.55,2.85,4.52,3.69c1.97.83,4.3,1.25,6.99,1.25h50.14c2.69,0,5.01-.42,6.95-1.25,1.95-.83,3.45-2.08,4.52-3.72s1.6-3.58,1.6-5.81h0Z"/>
  <path class="st0" d="M561.3,231.22h-100.35v-14.53h100.35v14.53ZM534.31,218.01l-27.19.56v-2.3l-46.18-19.68v-15.23l47.22,21.35,1.11,4.8,25.03,10.5h.01ZM561.3,195.55l-47.71,16.83-11.96-9.74,59.67-22.53v15.44h0Z"/>
  <path class="st0" d="M450.55,173.47v440.29h-63.16V173.47h63.16ZM418.82,173.47v53.7h-71.09c-13.83,0-24.11,3.41-30.82,10.22s-10.07,17.14-10.07,30.97v62.85c0,9.96,1.48,18.31,4.43,25.02,2.95,6.71,7.48,11.59,13.58,14.65,6.1,3.05,14.04,4.58,23.8,4.58h70.18v49.43h-66.52c-14.65,0-24.76,3.25-30.36,9.76-5.59,6.51-8.39,16.98-8.39,31.43v54.62c0,14.03,2.95,24.11,8.85,30.21s15.56,9.15,28.99,9.15h67.43v53.7h-80.55c-18.71,0-34.73-3.36-48.06-10.07-13.32-6.71-23.34-16.58-30.05-29.6-6.71-13.02-10.07-28.79-10.07-47.29v-51.26c0-15.26,1.98-27.92,5.95-37.99,3.97-10.07,9.61-17.65,16.93-22.73,7.32-5.09,15.56-8.44,24.71-10.07v-1.83c-10.98-1.83-20.69-5.85-29.14-12.05-8.44-6.21-15-14.8-19.68-25.78s-7.02-24.62-7.02-40.89v-57.97c0-19.73,3.56-36.51,10.68-50.35,7.12-13.84,17.7-24.36,31.73-31.58s31.23-10.83,51.56-10.83h83Z"/>
</svg>