<?xml version="1.0" encoding="UTF-8"?>
<svg id="Calque_1" xmlns="http://www.w3.org/2000/svg" version="1.1" viewBox="0 0 3000 3000">
  <!-- Generator: Adobe Illustrator 30.2.0, SVG Export Plug-In . SVG Version: 2.1.1 Build 105)  -->
  <defs>
    <style>
      .st0 {
        fill: #fff;
      }

      .st1 {
        fill: #011223;
      }
    </style>
  </defs>
  <rect class="st1" x="126.35" y="75.05" width="2747.3" height="2747.3" rx="448.16" ry="448.16"/>
  <path class="st0" d="M2284,2640.85h-545.01v-78.18h545.01v78.18ZM2284,2601.57h-66.47v-88.01c0-17.12-4.21-29.84-12.65-38.15-8.43-8.31-21.21-12.47-38.33-12.47h-77.8c-12.34,0-22.66,1.83-30.97,5.47-8.31,3.65-14.36,9.25-18.13,16.81-3.78,7.56-5.67,17.38-5.67,29.46v86.87h-61.18v-82.34c0-18.13-4.02-30.65-12.09-37.58-8.06-6.92-21.02-10.38-38.9-10.38h-67.61c-17.38,0-29.84,3.65-37.39,10.96-7.56,7.31-11.33,19.26-11.33,35.88v83.47h-66.47v-99.71c0-23.16,4.16-42.99,12.47-59.49,8.31-16.49,20.52-28.9,36.63-37.2,16.12-8.31,35.63-12.47,58.54-12.47h63.45c18.88,0,34.56,2.45,47.02,7.36,12.47,4.91,21.85,11.9,28.14,20.96,6.3,9.07,10.45,19.26,12.47,30.59h2.27c2.27-13.6,7.24-25.62,14.92-36.07,7.69-10.45,18.32-18.57,31.92-24.36s30.47-8.69,50.62-8.69h71.76c24.42,0,45.2,4.41,62.32,13.22,17.12,8.82,30.16,21.9,39.09,39.28,8.94,17.38,13.41,38.65,13.41,63.83v102.73h-.04v.03Z"/>
  <path class="st0" d="M2290.45,2215.64c0,27.19-5.92,51.31-17.75,72.33-11.84,21.02-28.83,37.27-50.99,48.72-22.15,11.47-48.22,17.19-78.19,17.19h-263.63c-30.21,0-56.34-5.79-78.37-17.38-22.02-11.58-39.02-27.82-50.99-48.72-11.96-20.89-17.94-44.95-17.94-72.14s6.04-50.36,18.13-71,29.08-36.95,50.99-48.91c21.9-11.96,47.97-17.94,78.19-17.94h263.63c29.71,0,55.59,5.98,77.61,17.94,22.03,11.97,39.09,28.27,51.18,48.91,12.09,20.64,18.13,44.32,18.13,71h0ZM2218.69,2215.64c0-11.58-2.83-21.84-8.49-30.78-5.67-8.94-13.85-15.67-24.55-20.21-10.7-4.53-23.35-6.8-37.95-6.8h-272.31c-14.6,0-27.31,2.27-38.15,6.8-10.83,4.53-19.01,11.27-24.55,20.21s-8.31,19.2-8.31,30.78c0,12.34,2.83,22.91,8.49,31.72,5.67,8.82,13.86,15.49,24.55,20.01,10.71,4.53,23.36,6.8,37.95,6.8h272.31c14.61,0,27.19-2.27,37.77-6.8s18.76-11.26,24.55-20.21c5.8-8.94,8.69-19.45,8.69-31.54h0v.02Z"/>
  <path class="st0" d="M2290.07,1919.23c0,26.43-5.09,49.36-15.3,68.74-10.2,19.39-25.17,34.37-44.95,44.95-19.76,10.58-43.24,16.25-70.44,17l-35.12.38v-77.05h40.41c11.84-.76,21.9-3.45,30.21-8.12,8.31-4.66,14.67-10.96,19.07-18.88,4.41-7.93,6.61-17.06,6.61-27.39s-2.07-19.32-6.23-27.01c-4.16-7.68-10.07-13.35-17.75-17s-17.18-5.47-28.52-5.47h-21.15c-20.89,0-38.39,4.29-52.5,12.84-14.1,8.57-29.96,24.68-47.59,48.35l-21.9,30.97c-19.13,27.44-40.04,48.22-62.69,62.32-22.66,14.11-50.86,21.15-84.6,21.15h-18.5c-25.43-.5-47.59-5.92-66.47-16.25s-33.55-24.92-44-43.82c-10.45-18.88-15.67-41.04-15.67-66.47s5.1-47.97,15.3-66.09c10.2-18.13,24.92-32.04,44.19-41.73,19.26-9.69,42.49-14.92,69.69-15.67l37.01-.38v75.92l-40.41.76c-12.09.51-22.28,2.71-30.59,6.61-8.31,3.91-14.66,9.25-19.07,16.05-4.4,6.8-6.61,15.11-6.61,24.92s1.95,17.88,5.85,24.92c3.91,7.05,9.51,12.4,16.81,16.05,7.31,3.65,16.12,5.47,26.43,5.47h20.01c18.88,0,35.5-4.53,49.86-13.6s29.46-23.79,45.33-44.19l22.28-31.35c14.36-20.39,28.83-37.07,43.44-50.04,14.61-12.97,30.47-22.28,47.59-27.95,17.12-5.67,37.01-8.49,59.67-8.49h20.39c26.69,0,49.8,5.29,69.31,15.87s34.5,25.56,44.95,44.95c10.45,19.39,15.67,42.3,15.67,68.74h-.02Z"/>
  <path class="st0" d="M2290.07,1641.33c0,26.43-5.09,49.36-15.3,68.74-10.2,19.39-25.17,34.37-44.95,44.95-19.76,10.58-43.24,16.25-70.44,17l-35.12.38v-77.05h40.41c11.84-.76,21.9-3.45,30.21-8.12,8.31-4.66,14.67-10.96,19.07-18.88,4.41-7.93,6.61-17.06,6.61-27.39s-2.07-19.32-6.23-27.01c-4.16-7.68-10.07-13.35-17.75-17s-17.18-5.47-28.52-5.47h-21.15c-20.89,0-38.39,4.29-52.5,12.84-14.1,8.57-29.96,24.68-47.59,48.35l-21.9,30.97c-19.13,27.44-40.04,48.22-62.69,62.32-22.66,14.11-50.86,21.15-84.6,21.15h-18.5c-25.43-.5-47.59-5.92-66.47-16.25s-33.55-24.92-44-43.82c-10.45-18.88-15.67-41.04-15.67-66.47s5.1-47.97,15.3-66.09c10.2-18.13,24.92-32.04,44.19-41.73,19.26-9.69,42.49-14.92,69.69-15.67l37.01-.38v75.92l-40.41.76c-12.09.51-22.28,2.71-30.59,6.61-8.31,3.91-14.66,9.25-19.07,16.05-4.4,6.8-6.61,15.11-6.61,24.92s1.95,17.88,5.85,24.92c3.91,7.05,9.51,12.4,16.81,16.05,7.31,3.65,16.12,5.47,26.43,5.47h20.01c18.88,0,35.5-4.53,49.86-13.6s29.46-23.79,45.33-44.19l22.28-31.35c14.36-20.39,28.83-37.07,43.44-50.04,14.61-12.97,30.47-22.28,47.59-27.95,17.12-5.67,37.01-8.49,59.67-8.49h20.39c26.69,0,49.8,5.29,69.31,15.87s34.5,25.56,44.95,44.95c10.45,19.39,15.67,42.3,15.67,68.74h-.02Z"/>
  <path class="st0" d="M1739.06,1222.91h545.01v78.18h-545.01v-78.18ZM1739.06,1262.19h66.47v88.01c0,17.12,4.21,29.84,12.65,38.15,8.43,8.31,21.21,12.47,38.33,12.47h77.8c12.34,0,22.66-1.83,30.97-5.47,8.31-3.65,14.36-9.25,18.13-16.81,3.78-7.56,5.67-17.38,5.67-29.46v-86.87h61.18v82.34c0,18.13,4.02,30.65,12.09,37.57,8.06,6.92,21.02,10.38,38.9,10.38h67.61c17.38,0,29.84-3.65,37.39-10.96,7.56-7.31,11.33-19.26,11.33-35.88v-83.47h66.47v99.71c0,23.16-4.16,42.99-12.47,59.49-8.31,16.49-20.52,28.9-36.63,37.2-16.12,8.31-35.63,12.47-58.54,12.47h-63.45c-18.88,0-34.56-2.45-47.02-7.36-12.47-4.91-21.85-11.9-28.14-20.96-6.3-9.07-10.45-19.26-12.47-30.59h-2.27c-2.27,13.6-7.24,25.62-14.92,36.07-7.69,10.45-18.32,18.57-31.92,24.36-13.6,5.79-30.47,8.69-50.62,8.69h-71.76c-24.42,0-45.2-4.41-62.32-13.22-17.12-8.82-30.16-21.9-39.09-39.28-8.94-17.38-13.41-38.65-13.41-63.83v-102.73h.04v-.02Z"/>
  <path class="st0" d="M2290.45,1056.06c0,27.19-5.92,51.31-17.75,72.33-11.84,21.02-28.83,37.27-50.99,48.73-22.15,11.47-48.22,17.19-78.19,17.19h-263.63c-30.21,0-56.34-5.79-78.37-17.38-22.02-11.58-39.02-27.82-50.99-48.72-11.96-20.89-17.94-44.95-17.94-72.14s6.04-50.36,18.13-71,29.08-36.95,50.99-48.91c21.9-11.96,47.97-17.94,78.19-17.94h263.63c29.71,0,55.59,5.98,77.61,17.94,22.03,11.97,39.09,28.27,51.18,48.91,12.09,20.64,18.13,44.32,18.13,71h0ZM2218.69,1056.06c0-11.58-2.83-21.84-8.49-30.79-5.67-8.94-13.85-15.67-24.55-20.21-10.7-4.53-23.35-6.8-37.95-6.8h-272.31c-14.6,0-27.31,2.26-38.15,6.8-10.83,4.53-19.01,11.27-24.55,20.21-5.54,8.95-8.31,19.2-8.31,30.79,0,12.34,2.83,22.91,8.49,31.72,5.67,8.82,13.86,15.49,24.55,20.01,10.71,4.53,23.36,6.8,37.95,6.8h272.31c14.61,0,27.19-2.27,37.77-6.8s18.76-11.26,24.55-20.21c5.8-8.94,8.69-19.45,8.69-31.54h0v.02Z"/>
  <path class="st0" d="M2290.45,743.03c0,27.19-5.92,51.31-17.75,72.33-11.84,21.02-28.83,37.27-50.99,48.72-22.15,11.46-48.22,17.19-78.19,17.19h-263.63c-30.21,0-56.34-5.79-78.37-17.38-22.02-11.58-39.02-27.82-50.99-48.72-11.96-20.89-17.94-44.95-17.94-72.14s6.04-50.36,18.13-71,29.08-36.95,50.99-48.91c21.9-11.96,47.97-17.94,78.19-17.94h263.63c29.71,0,55.59,5.98,77.61,17.94,22.03,11.97,39.09,28.27,51.18,48.91,12.09,20.65,18.13,44.32,18.13,71h0ZM2218.69,743.03c0-11.58-2.83-21.84-8.49-30.78-5.67-8.94-13.85-15.67-24.55-20.21-10.7-4.53-23.35-6.8-37.95-6.8h-272.31c-14.6,0-27.31,2.27-38.15,6.8-10.83,4.53-19.01,11.27-24.55,20.21s-8.31,19.2-8.31,30.78c0,12.34,2.83,22.91,8.49,31.72,5.67,8.82,13.86,15.49,24.55,20.02,10.71,4.53,23.36,6.8,37.95,6.8h272.31c14.61,0,27.19-2.26,37.77-6.8,10.58-4.53,18.76-11.27,24.55-20.21,5.8-8.94,8.69-19.45,8.69-31.54h0Z"/>
  <path class="st0" d="M2284.04,566.72h-545.01v-78.94h545.01v78.94ZM2137.49,494.96l-147.68,3.02v-12.47l-250.79-106.88v-82.72l256.45,115.95,6.05,26.06,135.96,57.03h.01ZM2284.04,372.97l-259.1,91.4-64.96-52.88,324.06-122.37v83.85h0Z"/>
  <path class="st0" d="M1682.59,253.09v2391.23h-343.02V253.09h343.02ZM1510.25,253.09v291.65h-386.11c-75.12,0-130.91,18.5-167.37,55.52-36.46,37-54.69,93.06-54.69,168.2v341.36c0,54.12,8.03,99.42,24.03,135.88,16.02,36.46,40.6,62.97,73.73,79.54,33.15,16.58,76.23,24.86,129.26,24.86h381.14v268.45h-361.25c-79.54,0-134.48,17.65-164.88,53.02-30.37,35.35-45.57,92.23-45.57,170.68v296.63c0,76.22,16.02,130.91,48.06,164.05,32.05,33.15,84.5,49.72,157.42,49.72h366.23v291.66h-437.48c-101.63,0-188.62-18.23-261.01-54.69-72.33-36.45-126.77-90.05-163.22-160.74-36.45-70.71-54.68-156.34-54.68-256.86v-278.4c0-82.86,10.76-151.63,32.3-206.31,21.54-54.69,52.2-95.85,91.97-123.46,39.77-27.63,84.5-45.85,134.22-54.68v-9.95c-59.65-9.95-112.39-31.78-158.26-65.46-45.83-33.71-81.46-80.36-106.88-140.02-25.4-59.65-38.11-133.69-38.11-222.06v-314.85c0-107.17,19.34-198.31,58-273.43,38.69-75.14,96.11-132.32,172.34-171.52,76.22-39.23,169.59-58.83,280.05-58.83h450.74v.02l.02.02Z"/>
</svg>