<?xml version="1.0" encoding="UTF-8"?>
<svg id="Calque_1" xmlns="http://www.w3.org/2000/svg" version="1.1" viewBox="0 0 3000 3000">
  <!-- Generator: Adobe Illustrator 30.2.0, SVG Export Plug-In . SVG Version: 2.1.1 Build 105)  -->
  <defs>
    <style>
      .st0 {
        fill: #f45f0c;
      }
    </style>
  </defs>
  <path class="st0" d="M1423.52,416.77v2218.16h-318.19V416.77h318.19ZM1263.65,416.77v270.54h-358.17c-69.68,0-121.44,17.15-155.26,51.5-33.82,34.32-50.73,86.32-50.73,156.02v316.66c0,50.2,7.45,92.23,22.29,126.05,14.87,33.82,37.66,58.42,68.4,73.79,30.75,15.38,70.72,23.06,119.9,23.06h353.56v249.03h-335.11c-73.79,0-124.75,16.38-152.95,49.18-28.17,32.79-42.27,85.55-42.27,158.33v275.16c0,70.71,14.87,121.44,44.58,152.18,29.73,30.75,78.39,46.12,146.03,46.12h339.72v270.55h-405.82c-94.27,0-174.97-16.91-242.11-50.73-67.1-33.82-117.59-83.53-151.41-149.1-33.82-65.6-50.72-145.03-50.72-238.26v-258.25c0-76.86,9.98-140.66,29.97-191.38,19.99-50.73,48.42-88.92,85.32-114.53,36.89-25.63,78.39-42.53,124.51-50.72v-9.22c-55.34-9.22-104.26-29.47-146.8-60.72-42.51-31.27-75.56-74.55-99.15-129.88-23.56-55.34-35.35-124.01-35.35-205.99v-292.06c0-99.41,17.94-183.96,53.8-253.63,35.89-69.7,89.15-122.74,159.87-159.1,70.71-36.39,157.32-54.57,259.78-54.57h418.12Z"/>
  <path class="st0" d="M1576.48,2634.93V416.77h318.19v2218.16h-318.19ZM1736.35,2634.93v-270.54h358.17c69.68,0,121.44-17.15,155.26-51.5,33.82-34.32,50.73-86.32,50.73-156.02v-316.66c0-50.2-7.45-92.23-22.29-126.05-14.87-33.82-37.66-58.42-68.4-73.79-30.75-15.38-70.72-23.06-119.9-23.06h-353.56v-249.03h335.11c73.79,0,124.75-16.38,152.95-49.18,28.17-32.79,42.27-85.55,42.27-158.33v-275.16c0-70.71-14.87-121.44-44.58-152.18-29.73-30.75-78.39-46.12-146.03-46.12h-339.72v-270.55h405.82c94.27,0,174.97,16.91,242.11,50.73,67.1,33.82,117.59,83.53,151.41,149.1,33.82,65.6,50.72,145.03,50.72,238.26v258.25c0,76.86-9.98,140.66-29.97,191.38-19.99,50.73-48.42,88.92-85.32,114.53-36.89,25.63-78.39,42.53-124.51,50.72v9.22c55.34,9.22,104.26,29.47,146.8,60.72,42.51,31.27,75.56,74.55,99.15,129.88,23.56,55.34,35.35,124.01,35.35,205.99v292.06c0,99.41-17.94,183.96-53.8,253.63-35.89,69.7-89.15,122.74-159.87,159.1-70.71,36.39-157.32,54.57-259.78,54.57h-418.12Z"/>
</svg>