<?xml version="1.0" encoding="UTF-8"?>
<svg id="Calque_1" xmlns="http://www.w3.org/2000/svg" version="1.1" viewBox="0 0 3000 3000">
  <!-- Generator: Adobe Illustrator 30.2.0, SVG Export Plug-In . SVG Version: 2.1.1 Build 105)  -->
  <defs>
    <style>
      .st0 {
        fill: #f45f0c;
      }
    </style>
  </defs>
  <path class="st0" d="M450.6,1188.28v623.14h-89.39v-623.14h89.39ZM405.69,1188.28v76h-100.62c-19.58,0-34.12,4.82-43.62,14.47-9.5,9.64-14.25,24.25-14.25,43.83v88.96c0,14.1,2.09,25.91,6.26,35.41,4.18,9.5,10.58,16.41,19.22,20.73,8.64,4.32,19.87,6.48,33.68,6.48h99.32v69.96h-94.14c-20.73,0-35.04,4.6-42.97,13.82-7.91,9.21-11.87,24.03-11.87,44.48v77.3c0,19.86,4.18,34.12,12.52,42.75,8.35,8.64,22.02,12.96,41.02,12.96h95.44v76.01h-114.01c-26.48,0-49.16-4.75-68.02-14.25-18.85-9.5-33.04-23.47-42.53-41.89-9.5-18.43-14.25-40.74-14.25-66.94v-72.55c0-21.59,2.8-39.51,8.42-53.76,5.61-14.25,13.6-24.98,23.97-32.17,10.36-7.2,22.02-11.95,34.98-14.25v-2.59c-15.55-2.59-29.29-8.28-41.24-17.06-11.94-8.78-21.23-20.94-27.85-36.49-6.62-15.55-9.93-34.84-9.93-57.87v-82.05c0-27.93,5.04-51.68,15.11-71.25,10.08-19.58,25.05-34.48,44.91-44.7,19.86-10.22,44.19-15.33,72.98-15.33h117.46Z"/>
  <path class="st0" d="M641.39,1818.77c-31.09,0-58.66-6.77-82.7-20.3-24.04-13.53-42.61-32.96-55.71-58.3-13.1-25.33-19.65-55.13-19.65-89.39v-301.42c0-34.55,6.62-64.41,19.87-89.61,13.24-25.19,31.81-44.62,55.71-58.3,23.89-13.67,51.39-20.51,82.48-20.51s57.58,6.91,81.18,20.73c23.61,13.82,42.25,33.25,55.93,58.3,13.67,25.05,20.51,54.84,20.51,89.39v301.42c0,33.97-6.84,63.56-20.51,88.74-13.68,25.2-32.32,44.7-55.93,58.51-23.61,13.82-50.67,20.73-81.18,20.73ZM641.39,1736.72c13.24,0,24.97-3.24,35.19-9.72,10.22-6.48,17.92-15.83,23.1-28.07,5.18-12.23,7.77-26.7,7.77-43.4v-311.36c0-16.69-2.59-31.23-7.77-43.62-5.18-12.38-12.89-21.73-23.1-28.07-10.22-6.33-21.96-9.5-35.19-9.5-14.11,0-26.2,3.24-36.27,9.72-10.08,6.48-17.71,15.84-22.89,28.07-5.18,12.24-7.77,26.71-7.77,43.4v311.36c0,16.7,2.59,31.09,7.77,43.18s12.88,21.45,23.1,28.07c10.21,6.63,22.24,9.93,36.06,9.93Z"/>
  <path class="st0" d="M980.29,1818.33c-30.23,0-56.43-5.83-78.59-17.49-22.17-11.66-39.3-28.78-51.39-51.39-12.09-22.6-18.57-49.45-19.43-80.54l-.43-40.16h88.09v46.21c.86,13.53,3.95,25.05,9.29,34.55,5.32,9.5,12.52,16.77,21.59,21.81,9.07,5.04,19.5,7.56,31.31,7.56s22.09-2.37,30.88-7.12c8.78-4.75,15.26-11.51,19.43-20.3,4.17-8.78,6.26-19.65,6.26-32.6v-24.18c0-23.89-4.9-43.9-14.68-60.03-9.79-16.12-28.22-34.26-55.28-54.41l-35.41-25.05c-31.38-21.88-55.13-45.77-71.25-71.68-16.13-25.91-24.18-58.15-24.18-96.73v-21.16c.57-29.08,6.76-54.41,18.57-76.01,11.8-21.59,28.5-38.36,50.09-50.31,21.59-11.94,46.92-17.92,76-17.92s54.84,5.83,75.57,17.49c20.73,11.66,36.63,28.5,47.72,50.52,11.08,22.03,17.06,48.58,17.92,79.68l.43,42.32h-86.8l-.86-46.21c-.58-13.82-3.1-25.48-7.56-34.98-4.47-9.5-10.58-16.77-18.35-21.81-7.77-5.03-17.27-7.56-28.5-7.56s-20.45,2.23-28.5,6.69c-8.06,4.47-14.18,10.87-18.35,19.22-4.18,8.35-6.26,18.43-6.26,30.23v22.89c0,21.59,5.18,40.59,15.55,57,10.36,16.41,27.2,33.68,50.52,51.82l35.84,25.48c23.32,16.41,42.39,32.97,57.22,49.66,14.82,16.7,25.48,34.84,31.96,54.41,6.48,19.58,9.72,42.32,9.72,68.23v23.32c0,30.52-6.05,56.94-18.14,79.24-12.09,22.31-29.22,39.45-51.39,51.39-22.17,11.94-48.37,17.92-78.6,17.92Z"/>
  <path class="st0" d="M1298.04,1818.33c-30.23,0-56.43-5.83-78.59-17.49-22.17-11.66-39.3-28.78-51.39-51.39-12.09-22.6-18.57-49.45-19.43-80.54l-.43-40.16h88.09v46.21c.86,13.53,3.95,25.05,9.29,34.55,5.32,9.5,12.52,16.77,21.59,21.81,9.07,5.04,19.5,7.56,31.31,7.56s22.09-2.37,30.88-7.12c8.78-4.75,15.26-11.51,19.43-20.3,4.17-8.78,6.26-19.65,6.26-32.6v-24.18c0-23.89-4.9-43.9-14.68-60.03-9.79-16.12-28.22-34.26-55.28-54.41l-35.41-25.05c-31.38-21.88-55.13-45.77-71.25-71.68-16.13-25.91-24.18-58.15-24.18-96.73v-21.16c.57-29.08,6.76-54.41,18.57-76.01,11.8-21.59,28.5-38.36,50.09-50.31,21.59-11.94,46.92-17.92,76-17.92s54.84,5.83,75.57,17.49c20.73,11.66,36.63,28.5,47.72,50.52,11.08,22.03,17.06,48.58,17.92,79.68l.43,42.32h-86.8l-.86-46.21c-.58-13.82-3.1-25.48-7.56-34.98-4.47-9.5-10.58-16.77-18.35-21.81-7.77-5.03-17.27-7.56-28.5-7.56s-20.45,2.23-28.5,6.69c-8.06,4.47-14.18,10.87-18.35,19.22-4.18,8.35-6.26,18.43-6.26,30.23v22.89c0,21.59,5.18,40.59,15.55,57,10.36,16.41,27.2,33.68,50.52,51.82l35.84,25.48c23.32,16.41,42.39,32.97,57.22,49.66,14.82,16.7,25.48,34.84,31.96,54.41,6.48,19.58,9.72,42.32,9.72,68.23v23.32c0,30.52-6.05,56.94-18.14,79.24-12.09,22.31-29.22,39.45-51.39,51.39-22.17,11.94-48.37,17.92-78.6,17.92Z"/>
  <path class="st0" d="M1481.06,1811.42v-623.14h89.39v623.14h-89.39ZM1525.97,1811.42v-76h100.62c19.58,0,34.12-4.82,43.62-14.47,9.5-9.64,14.25-24.25,14.25-43.83v-88.96c0-14.1-2.09-25.91-6.26-35.41-4.18-9.5-10.58-16.41-19.22-20.73-8.64-4.32-19.87-6.48-33.68-6.48h-99.32v-69.96h94.14c20.73,0,35.04-4.6,42.97-13.82,7.91-9.21,11.87-24.03,11.87-44.48v-77.3c0-19.86-4.18-34.12-12.52-42.75-8.35-8.64-22.02-12.96-41.02-12.96h-95.44v-76.01h114.01c26.48,0,49.16,4.75,68.02,14.25,18.85,9.5,33.04,23.47,42.53,41.89,9.5,18.43,14.25,40.74,14.25,66.94v72.55c0,21.59-2.8,39.51-8.42,53.76-5.61,14.25-13.6,24.98-23.97,32.17-10.36,7.2-22.02,11.95-34.98,14.25v2.59c15.55,2.59,29.29,8.28,41.24,17.06,11.94,8.78,21.23,20.94,27.85,36.49,6.62,15.55,9.93,34.84,9.93,57.87v82.05c0,27.93-5.04,51.68-15.11,71.25-10.08,19.58-25.05,34.48-44.91,44.7-19.86,10.22-44.19,15.33-72.98,15.33h-117.46Z"/>
  <path class="st0" d="M1967.22,1818.77c-31.09,0-58.66-6.77-82.69-20.3-24.04-13.53-42.61-32.96-55.71-58.3-13.1-25.33-19.65-55.13-19.65-89.39v-301.42c0-34.55,6.62-64.41,19.87-89.61,13.24-25.19,31.81-44.62,55.71-58.3,23.89-13.67,51.39-20.51,82.48-20.51s57.58,6.91,81.18,20.73c23.61,13.82,42.25,33.25,55.93,58.3,13.67,25.05,20.51,54.84,20.51,89.39v301.42c0,33.97-6.84,63.56-20.51,88.74-13.68,25.2-32.32,44.7-55.93,58.51-23.61,13.82-50.67,20.73-81.18,20.73ZM1967.22,1736.72c13.24,0,24.97-3.24,35.2-9.72,10.21-6.48,17.92-15.83,23.1-28.07,5.18-12.23,7.77-26.7,7.77-43.4v-311.36c0-16.69-2.59-31.23-7.77-43.62-5.18-12.38-12.89-21.73-23.1-28.07-10.23-6.33-21.96-9.5-35.2-9.5-14.11,0-26.2,3.24-36.27,9.72-10.08,6.48-17.7,15.84-22.88,28.07-5.18,12.24-7.78,26.71-7.78,43.4v311.36c0,16.7,2.59,31.09,7.78,43.18,5.18,12.09,12.88,21.45,23.1,28.07,10.21,6.63,22.24,9.93,36.06,9.93Z"/>
  <path class="st0" d="M2325.13,1818.77c-31.09,0-58.66-6.77-82.7-20.3-24.04-13.53-42.61-32.96-55.71-58.3-13.1-25.33-19.65-55.13-19.65-89.39v-301.42c0-34.55,6.62-64.41,19.87-89.61,13.24-25.19,31.81-44.62,55.71-58.3,23.89-13.67,51.39-20.51,82.48-20.51s57.57,6.91,81.18,20.73c23.61,13.82,42.25,33.25,55.93,58.3,13.67,25.05,20.51,54.84,20.51,89.39v301.42c0,33.97-6.84,63.56-20.51,88.74-13.68,25.2-32.32,44.7-55.93,58.51-23.61,13.82-50.67,20.73-81.18,20.73ZM2325.13,1736.72c13.24,0,24.97-3.24,35.19-9.72,10.22-6.48,17.92-15.83,23.1-28.07,5.18-12.23,7.78-26.7,7.78-43.4v-311.36c0-16.69-2.59-31.23-7.78-43.62-5.18-12.38-12.88-21.73-23.1-28.07-10.22-6.33-21.96-9.5-35.19-9.5-14.11,0-26.2,3.24-36.27,9.72-10.08,6.48-17.71,15.84-22.89,28.07-5.18,12.24-7.77,26.71-7.77,43.4v311.36c0,16.7,2.59,31.09,7.77,43.18,5.18,12.09,12.88,21.45,23.1,28.07,10.21,6.63,22.24,9.93,36.06,9.93Z"/>
  <path class="st0" d="M2526.71,1811.42v-623.14h90.26v623.14h-90.26ZM2608.76,1643.87l-3.45-168.85h14.25l122.21-286.74h94.57l-132.57,293.22-29.8,6.91-65.21,155.46ZM2748.24,1811.42l-104.51-296.24,60.46-74.28,139.91,370.52h-95.87Z"/>
</svg>